<?xml version="1.0" encoding="UTF-8"?>
<svg xmlns="http://www.w3.org/2000/svg" xmlns:xlink="http://www.w3.org/1999/xlink" width="24px" height="24px" viewBox="0 0 24 24" version="1.1">
<g id="surface1">
<rect width="24" height="24" fill="white"/>
<path style=" stroke:none;fill-rule:nonzero;fill:rgb(0%,0%,0%);fill-opacity:1;" d="M 23.4375 20.726562 L 18.4375 15.726562 L 18.078125 16.085938 L 17.523438 15.53125 C 20.363281 11.722656 20.058594 6.308594 16.601562 2.851562 C 12.800781 -0.945312 6.644531 -0.945312 2.847656 2.851562 C -0.949219 6.648438 -0.949219 12.804688 2.847656 16.597656 C 6.304688 20.058594 11.722656 20.367188 15.527344 17.523438 L 16.082031 18.078125 L 15.722656 18.4375 L 20.722656 23.4375 C 21.472656 24.183594 22.691406 24.183594 23.4375 23.4375 C 24.1875 22.691406 24.1875 21.480469 23.4375 20.726562 Z M 14.484375 14.488281 C 11.855469 17.117188 7.589844 17.117188 4.960938 14.488281 C 2.328125 11.859375 2.328125 7.589844 4.960938 4.960938 C 7.589844 2.332031 11.855469 2.332031 14.484375 4.960938 C 17.117188 7.589844 17.117188 11.859375 14.484375 14.488281 Z M 14.484375 14.488281 "/>
<path style=" stroke:none;fill-rule:nonzero;fill:rgb(0%,0%,0%);fill-opacity:1;" d="M 7.769531 9.292969 C 7.867188 9.9375 8.367188 10.761719 9.1875 11.050781 C 9.519531 11.167969 9.890625 11.167969 10.222656 11.050781 C 11.027344 10.761719 11.542969 9.941406 11.640625 9.296875 C 11.75 9.289062 11.890625 9.136719 12.046875 8.59375 C 12.253906 7.851562 12.03125 7.742188 11.847656 7.761719 C 11.878906 7.65625 11.910156 7.558594 11.925781 7.457031 C 12.246094 5.535156 11.296875 5.464844 11.296875 5.464844 C 11.296875 5.464844 11.140625 5.167969 10.726562 4.9375 C 10.453125 4.773438 10.0625 4.648438 9.554688 4.6875 C 9.390625 4.695312 9.234375 4.726562 9.089844 4.777344 C 8.90625 4.84375 8.730469 4.933594 8.578125 5.042969 C 8.386719 5.160156 8.207031 5.3125 8.046875 5.476562 C 7.796875 5.730469 7.574219 6.066406 7.480469 6.480469 C 7.398438 6.789062 7.414062 7.109375 7.484375 7.457031 C 7.503906 7.558594 7.527344 7.660156 7.5625 7.761719 C 7.375 7.742188 7.148438 7.851562 7.363281 8.59375 C 7.519531 9.132812 7.664062 9.289062 7.769531 9.292969 Z M 7.769531 9.292969 "/>
<path style=" stroke:none;fill-rule:nonzero;fill:rgb(0%,0%,0%);fill-opacity:1;" d="M 13.144531 11.910156 C 12.015625 11.480469 11.34375 11.035156 11.34375 11.035156 L 10.472656 13.78125 L 10.355469 14.152344 L 9.964844 13.050781 C 10.859375 11.804688 9.894531 11.742188 9.730469 11.742188 C 9.730469 11.742188 9.730469 11.742188 9.726562 11.742188 C 9.726562 11.742188 9.726562 11.742188 9.71875 11.742188 C 9.71875 11.742188 9.71875 11.742188 9.714844 11.742188 C 9.710938 11.742188 9.714844 11.742188 9.710938 11.742188 C 9.546875 11.742188 8.582031 11.804688 9.476562 13.050781 L 9.085938 14.152344 L 8.964844 13.78125 L 8.097656 11.035156 C 8.097656 11.035156 7.425781 11.472656 6.296875 11.910156 C 5.6875 12.128906 5.398438 12.488281 5.253906 13.015625 C 5.414062 13.234375 5.59375 13.445312 5.792969 13.640625 C 7.957031 15.804688 11.464844 15.804688 13.632812 13.640625 C 13.832031 13.441406 14.011719 13.230469 14.171875 13.015625 C 14.042969 12.488281 13.746094 12.128906 13.144531 11.910156 Z M 13.144531 11.910156 "/>
</g>
</svg>
